<svg
   width="180px"
   height="120px"
   viewBox="0 0 180 120"
   preserveAspectRatio="xMidYMid meet"
   xmlns="http://www.w3.org/2000/svg">
  <g
     fill="#818cf8">
    <path
       d="M124.11 112.34 c-7.44 -0.69 -14.52 -3.66 -20.48 -8.60 -2 -1.66 -2.74 -2.32 -2.65 -2.41 0.04 -0.04 0.59 0.26 1.23 0.66 6.94 4.49 11.22 6.25 17.58 7.20 0.84 0.13 2.57 0.20 4.90 0.20 3.03 -0.01 3.89 -0.06 5.41 -0.33 5.24 -0.89 9.59 -2.60 13.64 -5.31 2.05 -1.36 3.12 -2.21 8.35 -6.62 1.99 -1.67 5.31 -4.46 7.40 -6.19 2.08 -1.75 3.76 -3.22 3.75 -3.27 -0.03 -0.07 -0.79 -0.63 -1.70 -1.24 -0.91 -0.62 -3.33 -2.29 -5.38 -3.72 -10.50 -7.33 -11.75 -8.15 -14.38 -9.48 -3.97 -2 -8.64 -3.29 -12.76 -3.52 -1.98 -0.10 -2.38 -0.17 -2.38 -0.42 0 -0.45 4.08 -0.17 7.49 0.52 2.99 0.59 6.61 1.98 9.61 3.63 1.44 0.81 4.33 2.71 8.22 5.44 4.57 3.20 9.19 6.40 10.57 7.33 l1.33 0.91 -0.01 0.61 c0 0.58 -0.04 0.63 -1.18 1.54 -0.65 0.50 -2.96 2.42 -5.13 4.25 -8.74 7.34 -9.82 8.24 -11.44 9.46 -4.76 3.59 -10.10 5.83 -15.98 6.69 -2.15 0.33 -6.91 0.43 -9.17 0.23 -3.46 -0.33 -6.81 -1.10 -9.66 -2.24 -0.69 -0.27 -1.30 -0.49 -1.31 -0.46 -0.10 0.10 3.55 1.82 5 2.37 4.28 1.60 7.93 2.26 12.55 2.25 2.81 0 3.78 -0.10 6.63 -0.65 4.10 -0.79 8.54 -2.60 12.14 -4.93 1.56 -1.01 5.15 -3.72 7.92 -5.96 1.17 -0.95 5.19 -4.21 8.97 -7.27 3.76 -3.06 6.85 -5.55 6.84 -5.57 -0.01 -0.01 -2.21 -1.54 -4.86 -3.40 -12.87 -9 -15.94 -11.11 -18.61 -12.68 -7.18 -4.24 -15.76 -5.86 -24.09 -4.53 -6 0.97 -11.90 3.72 -16.90 7.88 -1.18 0.98 -6.17 5.47 -6.17 5.55 0 0.01 1.49 -1.07 3.30 -2.44 1.82 -1.37 3.98 -2.90 4.80 -3.40 5.51 -3.45 10.59 -5.08 16.53 -5.31 1.95 -0.07 2.19 -0.06 2.19 0.14 0 0.29 -0.38 0.35 -2.63 0.45 -1.88 0.10 -4.86 0.61 -6.81 1.17 -3.87 1.14 -8.26 3.45 -12.26 6.46 -5.02 3.78 -8.86 6.63 -10.69 7.96 -1.18 0.85 -2.26 1.63 -2.38 1.72 -0.50 0.36 1.79 -2 3.59 -3.72 3.23 -3.07 8.50 -7.83 10.18 -9.22 4.54 -3.74 10.15 -6.48 15.36 -7.51 2.73 -0.55 4.53 -0.71 7.79 -0.71 5.51 0 10.41 1.01 15.14 3.14 3.17 1.43 5.25 2.75 15.74 10.05 10.46 7.28 11.81 8.25 11.77 8.41 -0.03 0.09 -2.83 2.41 -6.25 5.16 -3.40 2.77 -7.49 6.07 -9.06 7.36 -6.95 5.64 -9.88 7.64 -13.64 9.33 -4.43 2 -8.81 2.97 -13.92 3.10 -1.43 0.03 -3.25 0 -4.04 -0.09z" />
    <path
       d="M46.88 112.27 c-0.27 -0.03 -1.13 -0.13 -1.88 -0.20 -5.11 -0.56 -10.25 -2.38 -14.99 -5.29 -2.90 -1.79 -10.96 -7.53 -22.11 -15.76 -0.38 -0.27 -0.66 -0.56 -0.63 -0.65 0.04 -0.17 0.25 -0.33 7.89 -6.07 8.47 -6.36 12.48 -9.25 15.09 -10.86 1.95 -1.21 5.96 -3.30 5.96 -3.12 0 0.03 -0.79 0.65 -1.76 1.38 -3.14 2.37 -4.76 3.76 -10.72 9.38 -1.82 1.72 -4.76 4.43 -6.53 6.04 -1.76 1.60 -3.17 2.96 -3.13 3.03 0.09 0.14 0.03 0.10 8.51 5.84 9.81 6.63 10.63 7.15 13.08 8.38 3.06 1.53 5.60 2.38 8.99 3.01 7.47 1.37 14.86 0.45 21.35 -2.67 1.98 -0.95 4.43 -2.52 8.44 -5.41 3.81 -2.73 11.39 -8.11 12.03 -8.52 0.23 -0.14 0.39 -0.20 0.36 -0.13 -0.06 0.14 -7.82 7.70 -10.73 10.46 -1.89 1.79 -4.05 3.65 -5.41 4.64 -4.49 3.29 -9.32 5.29 -14.93 6.17 -1.80 0.29 -7.49 0.50 -8.87 0.35z m6.78 -0.71 c7.10 -0.82 12.43 -3.03 17.86 -7.38 1.60 -1.28 6.42 -5.73 7.96 -7.34 l0.79 -0.82 -0.79 0.55 c-0.43 0.32 -2.48 1.77 -4.54 3.25 -4.17 2.99 -5.99 4.18 -7.98 5.21 -5.22 2.70 -11.58 3.91 -18.09 3.48 -5.39 -0.38 -9.49 -1.44 -13.82 -3.65 -2.41 -1.21 -3.89 -2.18 -12.71 -8.15 -3.84 -2.61 -7.41 -5.03 -7.95 -5.39 -0.94 -0.62 -0.98 -0.68 -0.97 -1.23 0.01 -0.52 0.10 -0.65 0.84 -1.30 1.50 -1.31 7.25 -6.59 9.89 -9.09 1.43 -1.34 3.14 -2.97 3.82 -3.59 l1.23 -1.14 -1.44 0.98 c-2.90 1.98 -11.12 8.05 -17.91 13.23 l-1.62 1.23 0.61 0.43 c0.33 0.23 2.35 1.72 4.49 3.29 9.87 7.24 16.24 11.67 19.05 13.23 4.23 2.34 9.03 3.82 13.92 4.28 2.03 0.20 5.45 0.17 7.36 -0.06z" />
    <path
       d="M46.66 101.02 c-5.70 -0.85 -9.25 -2.61 -16.59 -8.21 -4.13 -3.16 -3.95 -3.01 -3.95 -3.14 -0.03 -0.29 6.84 -5.08 9.79 -6.84 2.47 -1.47 6.59 -3.45 6.92 -3.33 0.07 0.03 -0.61 0.63 -1.49 1.34 -1.56 1.25 -6.76 6.35 -8 7.83 l-0.61 0.72 0.89 0.65 c5.51 3.91 9.06 5.58 13.44 6.33 2.34 0.39 6.72 0.32 8.96 -0.17 3.42 -0.74 6.92 -2.26 11.29 -4.98 1.37 -0.85 2.54 -1.51 2.58 -1.47 0.19 0.19 -3.25 4.05 -5.08 5.73 -2.70 2.44 -6.55 4.37 -10.43 5.21 -1.11 0.23 -2.02 0.30 -4.36 0.35 -1.63 0.03 -3.14 0.01 -3.39 -0.01z m7.63 -0.98 c2.90 -0.68 5.51 -1.80 8.02 -3.49 1.01 -0.66 5.09 -4.51 4.33 -4.07 -4.36 2.54 -6.98 3.63 -10.40 4.33 -1.46 0.29 -2.05 0.33 -5.25 0.33 -3.26 0 -3.75 -0.03 -5.12 -0.33 -4.37 -0.98 -7.96 -2.74 -12.65 -6.19 -0.98 -0.72 -1.05 -0.81 -1.05 -1.31 0 -0.52 0.17 -0.72 3.36 -3.97 3.68 -3.75 3.68 -3.66 0.10 -1.50 -2.71 1.64 -8.38 5.61 -8.35 5.84 0 0.12 -0.03 0.10 3.75 2.94 5.41 4.07 7.98 5.58 11.41 6.72 2.83 0.94 4.44 1.18 7.54 1.13 2.22 -0.03 2.84 -0.10 4.31 -0.43z" />
    <path
       d="M123.53 100.69 c-2.52 -0.45 -4.60 -1.15 -6.78 -2.31 -1.38 -0.72 -3.27 -1.92 -3.19 -2 0.03 -0.03 0.95 0.25 2.06 0.59 3.72 1.21 6.61 1.64 9.78 1.49 5.37 -0.25 9.61 -1.89 14.03 -5.45 2.12 -1.69 4.96 -4.28 4.86 -4.44 -0.13 -0.22 -3.33 -2.57 -4.82 -3.53 -3.82 -2.51 -6.95 -3.53 -10.75 -3.53 -4.62 0 -9.52 1.54 -15.09 4.75 -3.65 2.11 -6.71 4.10 -14.81 9.71 -1.05 0.74 -1.96 1.28 -2.02 1.23 -0.13 -0.13 6.81 -7.02 9.35 -9.27 2.70 -2.41 3.91 -3.36 6.26 -4.89 6.58 -4.31 11.97 -6.07 17.81 -5.80 4.98 0.25 9.03 1.79 14.28 5.48 3.46 2.42 7.50 5.50 7.46 5.64 -0.12 0.36 -8.11 6.63 -10.50 8.25 -3.84 2.58 -8.19 4.14 -12.20 4.34 -1.41 0.09 -1.49 0.07 -1.49 -0.20 0 -0.26 0.13 -0.30 1.34 -0.38 2.37 -0.16 4.82 -0.76 7.41 -1.85 2.93 -1.23 5.21 -2.78 12.09 -8.26 1.20 -0.94 2.22 -1.76 2.28 -1.82 0.12 -0.10 -5.03 -3.94 -7.90 -5.88 -3.40 -2.29 -6.97 -3.85 -10.17 -4.46 -2.16 -0.40 -5.61 -0.33 -7.95 0.14 -6.06 1.27 -12.06 4.64 -18.30 10.30 -1.90 1.72 -5.03 4.72 -4.54 4.34 1 -0.76 7.62 -5.08 9.65 -6.29 4.90 -2.94 8.90 -4.60 12.78 -5.31 1.89 -0.36 5.83 -0.43 7.50 -0.14 3.53 0.61 5.99 1.82 10.72 5.26 2.22 1.62 2.26 1.66 2.26 2.18 0 0.48 -0.12 0.65 -1.05 1.53 -5.61 5.32 -9.55 7.62 -14.81 8.60 -2.68 0.50 -7.15 0.46 -10.10 -0.12 -0.62 -0.12 1.76 0.79 2.84 1.10 1.40 0.39 3.53 0.72 4.56 0.72 0.72 0 0.82 0.03 0.82 0.29 0 0.26 -0.09 0.29 -1.11 0.27 -0.62 0 -1.77 -0.13 -2.57 -0.26z" />
    <path
       d="M72.09 88.60 c-0.14 -0.03 -0.26 -0.16 -0.26 -0.27 0 -0.17 0.61 -0.20 3.72 -0.22 l3.71 0 -4.31 -0.63 c-11.13 -1.64 -14 -2.34 -18.33 -4.47 -3.48 -1.70 -5.86 -3.42 -8.71 -6.32 -4.88 -4.95 -7.75 -10.14 -9.39 -17.05 -0.38 -1.56 -1.33 -6.49 -3.39 -17.58 -0.36 -1.98 -0.65 -3.88 -0.62 -4.25 l0.04 -0.66 0.65 0.01 c0.36 0 2.45 0.06 4.66 0.13 3.85 0.10 4 0.12 4 0.40 0 0.27 -0.07 0.29 -3.85 0.19 -2.13 -0.06 -4.11 -0.13 -4.40 -0.17 -0.52 -0.09 -0.55 -0.07 -0.55 0.33 0 0.22 0.07 0.69 0.16 1.04 0.07 0.35 0.59 3.07 1.14 6.06 2.26 12.39 2.80 14.88 3.84 17.94 2.83 8.34 9.33 15.75 17.13 19.56 2.88 1.41 6.53 2.42 11.84 3.32 3.04 0.50 11.11 1.67 15.07 2.19 0.75 0.09 1.43 0.23 1.51 0.29 0.20 0.19 -3.29 0.16 -4.36 -0.04 -0.78 -0.14 -0.95 -0.13 -1.05 0.04 -0.12 0.16 -0.82 0.20 -4.07 0.23 -2.16 0 -4.05 -0.01 -4.18 -0.06z" />
    <path
       d="M66.78 88.40 c-3.75 -0.30 -7.85 -1.17 -10.57 -2.24 -8.65 -3.40 -16.05 -10.60 -19.70 -19.11 -1.51 -3.58 -2.15 -6.16 -3.39 -13.98 -1.21 -7.56 -2.83 -18.07 -2.91 -19.01 l-0.10 -0.91 0.49 0.07 c0.27 0.04 2.54 0.35 5.03 0.66 13.04 1.67 29.77 4.46 28.49 4.73 -0.16 0.04 -1.98 -0.01 -4.04 -0.10 -2.06 -0.09 -6.32 -0.22 -9.45 -0.30 -6.35 -0.17 -6.63 -0.20 -6.63 -0.53 0 -0.22 0.32 -0.23 3.22 -0.14 1.76 0.06 4.73 0.13 6.59 0.17 l3.39 0.07 -1.95 -0.36 c-4.95 -0.89 -24.30 -3.68 -24.45 -3.50 -0.04 0.06 2.42 16.01 3.30 21.33 0.36 2.19 0.89 4.92 1.18 6.06 0.53 2.16 1.70 5.29 2.68 7.25 1.79 3.56 4.80 7.49 7.88 10.23 6.71 6.04 13.75 8.78 23.37 9.14 2.15 0.09 2.34 0.12 2.34 0.36 0 0.23 -0.13 0.26 -1.62 0.25 -0.89 -0.01 -2.31 -0.09 -3.14 -0.14z" />
    <path
       d="M89.08 84.79 c-0.12 -1.11 -0.12 -3.13 0 -3.55 0.06 -0.19 0.17 -0.33 0.27 -0.33 0.17 0 0.63 -2.58 1.37 -7.72 1 -6.95 1.76 -10.10 3.33 -13.75 4.27 -9.95 13.75 -17.65 24.58 -19.99 3.88 -0.82 21.78 -4.13 22.43 -4.13 l0.58 0 0 2.38 c0 2.28 -0.01 2.38 -0.29 2.38 -0.27 0 -0.29 -0.10 -0.29 -2.09 0 -1.15 -0.06 -2.09 -0.13 -2.09 -0.07 0 -1.33 0.23 -2.78 0.49 -1.44 0.27 -5.29 1 -8.55 1.60 -8.63 1.59 -10.18 1.90 -12.27 2.45 -9.61 2.51 -18.19 9.66 -22.36 18.63 -1.51 3.27 -2.48 6.81 -3.30 12.16 -1.47 9.58 -2.25 14.21 -2.42 14.37 -0.03 0.03 -0.10 -0.33 -0.16 -0.82z" />
    <path
       d="M80.84 80.06 c-2.44 -2.22 -6.46 -6.33 -7.99 -8.16 -2.60 -3.12 -4.77 -6.88 -5.91 -10.20 -0.97 -2.83 -1.75 -6.97 -1.75 -9.29 0 -0.82 0.03 -0.92 0.29 -0.92 0.26 0 0.29 0.10 0.29 0.78 0 0.43 0.10 1.56 0.22 2.50 0.76 5.87 2.90 10.90 6.61 15.66 0.81 1.04 3.74 4.27 4.66 5.15 l0.68 0.65 -0.91 -1.23 c-6.09 -8.28 -8.52 -15.45 -8.16 -24.12 0.20 -5.16 1.21 -9.36 3.25 -13.60 1.40 -2.91 2.75 -5.02 8.45 -13.05 1.04 -1.47 2.94 -4.21 4.24 -6.10 l2.35 -3.42 0.55 0 c0.52 0 0.63 0.10 1.96 1.56 1.90 2.09 9.13 9.75 11.38 12.07 1.33 1.37 1.70 1.67 1.34 1.15 -3.13 -4.59 -7.33 -10.15 -12.71 -16.83 l-2.29 -2.86 -2.39 3.22 c-14 18.78 -14.64 19.70 -16.47 23.94 -1.51 3.55 -2.74 8.71 -2.74 11.57 0 0.69 -0.03 0.79 -0.29 0.79 -0.26 0 -0.29 -0.10 -0.29 -0.85 0 -1.21 0.38 -3.98 0.81 -5.93 0.58 -2.60 1.41 -4.90 2.74 -7.62 1.73 -3.53 2.67 -4.89 12.92 -18.66 2.34 -3.12 4.53 -6.07 4.88 -6.56 0.36 -0.50 0.72 -0.89 0.81 -0.87 0.19 0.03 1.08 1.10 3.75 4.43 7.13 8.91 11.91 15.53 15.16 20.97 1.80 3.03 1.72 2.99 -1.41 -0.65 -0.92 -1.07 -2.73 -3.03 -4.01 -4.38 -5.75 -6.04 -9.03 -9.55 -10.96 -11.65 -1.15 -1.24 -2.13 -2.25 -2.19 -2.24 -0.06 0.03 -1.66 2.28 -3.56 5.02 -1.89 2.74 -4.63 6.66 -6.07 8.73 -3.03 4.31 -4.15 6.12 -5.35 8.61 -1.50 3.13 -2.47 6.26 -2.97 9.71 -0.40 2.64 -0.36 7.59 0.07 10.17 0.97 5.74 3.27 10.82 7.54 16.64 0.65 0.88 2.12 2.87 3.29 4.41 1.15 1.54 2.16 2.90 2.22 3 0.27 0.46 -0.27 0.03 -2 -1.54z" />
    <path
       d="M89.13 76.13 c0 -3.84 0.25 -8.99 0.50 -11.02 1.04 -7.86 4.44 -14.51 10.36 -20.19 4.50 -4.33 10.25 -7.51 16.47 -9.12 2.37 -0.62 4.54 -0.98 14.50 -2.41 4.72 -0.69 9.85 -1.43 11.39 -1.66 1.54 -0.23 2.86 -0.38 2.90 -0.32 0.17 0.19 -1.14 9.88 -2.34 17.19 -0.84 5.12 -2.26 12.42 -2.45 12.62 -0.09 0.09 -0.12 -0.58 -0.06 -1.80 0.16 -3.76 0.50 -15.13 0.50 -16.82 0 -1.93 0.07 -2.37 0.40 -2.37 0.19 0 0.20 0.46 0.13 4.08 -0.27 11.83 -0.35 11.25 0.59 5.80 1 -5.81 2.73 -17.90 2.60 -18.04 -0.03 -0.03 -2.45 0.30 -5.38 0.74 -2.94 0.42 -8.09 1.17 -11.47 1.66 -3.38 0.49 -6.98 1.04 -8.02 1.23 -7.33 1.36 -14.19 4.82 -19.30 9.74 -5.78 5.58 -9.25 12.33 -10.25 19.98 -0.27 2.13 -0.49 6.75 -0.50 10.57 0 2.81 -0.01 2.91 -0.29 2.91 -0.27 0 -0.29 -0.10 -0.29 -2.77z" />
    <path
       d="M66.06 76.64 c-0.20 -0.03 -0.85 -0.13 -1.44 -0.22 -7.07 -1 -13.54 -5.75 -16.88 -12.39 -1.82 -3.63 -2.42 -6.52 -3.66 -17.63 -0.04 -0.40 0 -0.55 0.14 -0.55 0.56 0 8.44 1.18 10.05 1.51 3.09 0.63 5.70 1.49 7.86 2.58 0.53 0.27 1.10 0.61 1.25 0.74 0.29 0.23 0.29 0.23 -0.07 0.16 -3.62 -0.74 -6.87 -0.92 -12 -0.71 l-2.28 0.09 0 0.38 c0 0.50 0.66 4.25 1.01 5.78 0.76 3.25 2.15 6.42 3.84 8.80 1.99 2.78 5.06 5.42 8.28 7.11 2.93 1.53 5.60 2.39 10.21 3.29 1.36 0.26 2.48 0.52 2.48 0.58 0 0.36 -6.98 0.74 -8.80 0.48z m2.67 -1.20 c-5.41 -1.38 -9.12 -3.29 -12.45 -6.43 -3.50 -3.30 -5.70 -7.30 -6.87 -12.50 -0.50 -2.28 -0.95 -5.09 -0.95 -6.04 l0 -0.82 3.66 -0.10 c2 -0.06 4.53 -0.07 5.58 -0.01 l1.93 0.09 -1.23 -0.45 c-2.41 -0.85 -5.88 -1.57 -11.29 -2.31 -1.25 -0.17 -2.31 -0.27 -2.35 -0.23 -0.12 0.10 0.89 7.88 1.31 10.14 0.46 2.45 1.05 4.30 2.03 6.39 2.93 6.20 8.51 10.76 15.06 12.33 2.11 0.50 3.17 0.62 5.91 0.63 l2.38 0.01 -2.74 -0.69z" />
    <path
       d="M85.59 68.06 c-1.70 -1.34 -4.07 -3.79 -5.05 -5.25 -3.97 -5.83 -4.98 -13.01 -2.78 -19.72 0.87 -2.68 2.55 -5.73 4.79 -8.70 1.50 -1.98 5.64 -7.14 5.71 -7.14 0.10 0 3.66 4.77 4.80 6.42 1.30 1.86 3 4.77 3.84 6.56 0.84 1.77 1.62 3.76 1.62 4.14 0 0.13 -0.53 -0.48 -1.17 -1.34 -0.65 -0.87 -1.63 -2.11 -2.19 -2.77 -1.01 -1.20 -4.79 -4.93 -6 -5.91 l-0.62 -0.52 -0.35 0.42 c-0.19 0.25 -1.20 1.69 -2.24 3.23 -2.63 3.91 -3.81 6.45 -4.62 9.94 -0.39 1.63 -0.53 5.57 -0.27 7.43 0.56 4.23 2.32 8.68 5.02 12.76 0.43 0.65 0.76 1.23 0.72 1.27 -0.04 0.03 -0.59 -0.33 -1.21 -0.82z m-2.29 -3.82 c-2.03 -4.04 -2.96 -7.85 -2.96 -12.35 0 -5.31 1.28 -9.26 4.64 -14.25 3.23 -4.77 2.84 -4.31 3.55 -4.33 0.59 0 0.69 0.07 2.39 1.66 0.98 0.91 2.54 2.44 3.48 3.42 1.92 1.99 1.92 1.95 0 -1.25 -1.49 -2.51 -5.93 -8.75 -6.16 -8.68 -0.12 0.03 -3.22 3.91 -4.73 5.87 -3.33 4.36 -5.05 7.83 -5.94 12.01 -0.45 2.09 -0.45 5.48 0.01 7.59 0.71 3.30 1.63 5.57 3.30 8.09 0.82 1.23 2.93 3.75 3.13 3.75 0.03 0 -0.29 -0.69 -0.72 -1.53z" />
    <path
       d="M127.07 64.89 c0 -0.12 0.16 -0.91 0.35 -1.76 0.20 -0.85 0.43 -2.41 0.52 -3.46 0.17 -1.93 0.16 -9.38 -0.01 -9.55 -0.14 -0.13 -4.47 0.45 -6.56 0.87 -3.69 0.75 -7.17 2.22 -10.43 4.40 -1.96 1.31 -4.44 3.59 -5.50 5.03 -0.35 0.48 -0.66 0.84 -0.69 0.81 -0.12 -0.10 0.53 -2 1.05 -3.19 1.27 -2.78 3.92 -5.91 6.63 -7.83 2.61 -1.83 6.09 -3.26 9.68 -3.97 2.16 -0.42 10.70 -1.62 10.80 -1.50 0.10 0.10 -0.58 5.78 -0.95 8.05 -0.78 4.70 -1.90 7.95 -3.72 10.77 -0.79 1.25 -1.17 1.67 -1.17 1.33z m3.03 -7.01 c0.88 -2.71 1.41 -5.65 2.11 -11.61 0.09 -0.75 0.06 -0.84 -0.17 -0.84 -0.42 0 -6.61 0.85 -8.42 1.17 -7.75 1.31 -13.38 4.95 -16.66 10.73 l-0.42 0.72 0.87 -0.79 c3.03 -2.83 7.14 -5.12 11.38 -6.33 2.05 -0.58 7.51 -1.46 9.09 -1.46 l0.62 0 0.10 1.24 c0.10 1.23 0 9.36 -0.14 10.59 l-0.07 0.65 0.58 -1.15 c0.32 -0.63 0.84 -1.95 1.15 -2.91z" />
  </g>
  <g
     fill="#818cf8">
    <path
       d="M124.76 112.27 c-0.27 -0.03 -1.13 -0.13 -1.88 -0.20 -4.38 -0.48 -9.27 -2.08 -13.20 -4.30 -2.71 -1.54 -6.79 -4.50 -7.79 -5.65 -0.33 -0.39 -0.29 -0.36 1.30 0.65 5.81 3.72 10.63 5.67 16.15 6.50 2.15 0.33 7.64 0.38 9.74 0.09 6.19 -0.87 11.67 -3.12 16.56 -6.79 1.62 -1.23 2.70 -2.12 11.44 -9.46 2.18 -1.83 4.49 -3.75 5.13 -4.25 0.65 -0.52 1.18 -1.02 1.18 -1.11 0.01 -0.10 -0.59 -0.58 -1.31 -1.08 -1.38 -0.92 -6 -4.13 -10.57 -7.33 -7.59 -5.31 -10.11 -6.74 -14.42 -8.16 -3.75 -1.23 -7.38 -1.72 -11.87 -1.60 -4.62 0.12 -7.40 0.68 -11.50 2.29 -3.33 1.31 -5.99 2.94 -11.24 6.88 -3.91 2.96 -8.18 6.10 -9.53 7.04 -1.62 1.13 7.67 -7.67 11.73 -11.11 3.75 -3.17 7.56 -5.38 11.96 -6.89 7.04 -2.44 16.08 -2.42 23.45 0.04 3.35 1.11 6.40 2.68 10.20 5.21 3.56 2.38 20.42 14.18 20.55 14.38 0.04 0.07 -3.12 2.71 -7.01 5.87 -3.89 3.16 -8.03 6.50 -9.20 7.46 -2.77 2.24 -6.36 4.95 -7.92 5.96 -1.66 1.08 -4.64 2.60 -6.52 3.32 -3.91 1.50 -7.50 2.18 -12.04 2.26 -1.59 0.04 -3.12 0.03 -3.39 0z" />
    <path
       d="M45.87 112.05 c-4.89 -0.46 -9.69 -1.95 -13.92 -4.28 -2.81 -1.56 -9.14 -5.96 -19.05 -13.23 -2.13 -1.57 -4.25 -3.13 -4.70 -3.45 -0.46 -0.33 -0.81 -0.65 -0.78 -0.74 0.01 -0.07 2.67 -2.12 5.87 -4.54 11.37 -8.57 16.37 -12.07 19.93 -13.96 1.10 -0.59 2.02 -1.04 2.06 -1.01 0.03 0.04 -0.25 0.29 -0.63 0.56 -2.41 1.73 -5.34 4.25 -9.84 8.50 -2.96 2.78 -8.57 7.95 -10.11 9.30 -0.46 0.40 -0.84 0.79 -0.84 0.87 0 0.09 0.43 0.43 0.97 0.79 0.53 0.36 4.11 2.78 7.95 5.39 8.81 5.97 10.30 6.94 12.71 8.15 2.29 1.17 4.18 1.89 6.46 2.50 8.48 2.21 17.41 1.37 24.58 -2.32 2 -1.04 3.82 -2.22 8.05 -5.25 4.70 -3.38 10.60 -7.56 11.18 -7.92 1.21 -0.78 -11.29 11.18 -13.80 13.20 -5.42 4.36 -10.75 6.56 -17.86 7.38 -1.92 0.23 -6.14 0.26 -8.22 0.06z" />
    <path
       d="M47.96 100.95 c-4.31 -0.25 -8.52 -1.75 -12.74 -4.56 -1.77 -1.18 -7.36 -5.34 -8.47 -6.29 l-0.55 -0.48 1.86 -1.37 c4.53 -3.36 8.96 -6.10 12.22 -7.60 1.11 -0.49 2.03 -0.88 2.06 -0.85 0.04 0.03 -0.40 0.45 -0.98 0.91 -1.80 1.46 -3.85 3.39 -6.39 6.04 l-2.45 2.57 0.50 0.42 c0.74 0.62 4.36 3 5.74 3.78 2.39 1.36 4.66 2.21 7.53 2.86 1.34 0.29 1.89 0.33 4.69 0.33 2.74 0 3.39 -0.04 4.82 -0.33 3.45 -0.71 6.63 -2.05 10.76 -4.57 1.27 -0.78 2.54 -1.54 2.81 -1.72 0.46 -0.27 0.43 -0.22 -0.42 0.85 -1.40 1.73 -4.99 5.24 -6.20 6.04 -4.54 3.01 -9.20 4.25 -14.80 3.97z" />
    <path
       d="M126.13 100.86 c-3.26 -0.20 -6.42 -1.08 -9.29 -2.58 -1.33 -0.68 -3 -1.73 -2.57 -1.59 4.92 1.57 7.86 2.08 11.15 1.90 5 -0.26 9.30 -1.82 13.23 -4.80 1.85 -1.38 5.87 -4.99 5.87 -5.24 0 -0.14 -4.40 -3.32 -5.91 -4.25 -3.58 -2.21 -6.65 -3.06 -10.46 -2.91 -7.25 0.27 -13.07 3.09 -28.20 13.67 -1.47 1.02 -2.68 1.86 -2.71 1.86 -0.32 0 4.82 -5.12 8.35 -8.37 6.55 -5.99 12.65 -9.48 18.87 -10.77 1.59 -0.33 2.16 -0.39 4.63 -0.39 2.13 -0.01 3.14 0.04 4.18 0.25 3.22 0.61 6.76 2.16 10.17 4.46 2.18 1.47 8.35 6 8.41 6.17 0.07 0.20 -7.50 6.20 -10.07 7.96 -3.27 2.25 -6.23 3.53 -9.74 4.21 -1.17 0.23 -4.18 0.53 -4.83 0.49 -0.20 -0.01 -0.68 -0.04 -1.08 -0.07z" />
    <path
       d="M68.87 88.40 c-9.97 -0.48 -16.75 -3.13 -23.47 -9.17 -3.07 -2.74 -6.09 -6.66 -7.88 -10.23 -0.98 -1.96 -2.15 -5.09 -2.68 -7.25 -0.59 -2.34 -1.51 -7.80 -3.33 -19.70 -0.68 -4.44 -1.27 -8.22 -1.31 -8.41 -0.06 -0.32 -0.04 -0.33 0.55 -0.25 0.35 0.04 3.35 0.43 6.68 0.88 11.05 1.44 25.34 3.76 25.73 4.18 0.04 0.06 -0.69 0.06 -1.64 0 -0.95 -0.06 -4.98 -0.19 -8.94 -0.30 -3.97 -0.12 -9.03 -0.27 -11.25 -0.36 -6.46 -0.22 -6.35 -0.22 -6.39 0.03 -0.03 0.13 0.26 1.85 0.62 3.81 2.06 11.09 3.01 16.02 3.39 17.58 1.64 6.91 4.51 12.10 9.39 17.05 2.86 2.90 5.24 4.62 8.71 6.32 3.43 1.70 6.40 2.57 11.83 3.46 2.73 0.45 12.69 1.90 15.07 2.19 l0.94 0.10 -1.01 0.10 c-1.37 0.13 -12.14 0.12 -15 -0.03z" />
    <path
       d="M89.19 78.89 c0.17 -10.23 0.39 -13.69 1.11 -16.93 0.78 -3.58 2.63 -7.89 4.70 -10.98 4.88 -7.25 12 -12.36 20.70 -14.87 2.28 -0.65 4.33 -1.02 11.15 -2 3.10 -0.45 8.48 -1.23 11.96 -1.73 3.49 -0.52 6.36 -0.91 6.39 -0.88 0.06 0.06 -1.14 9.09 -1.70 12.71 -0.98 6.46 -2.54 15.04 -2.88 15.85 -0.07 0.19 -0.09 -0.40 -0.04 -1.43 0.09 -2.09 0.45 -13.99 0.58 -19.17 l0.10 -3.74 -0.49 0.09 c-1.43 0.23 -17.37 3.22 -19.89 3.72 -4.47 0.89 -6.82 1.66 -10.05 3.29 -7.69 3.87 -13.76 10.43 -16.75 18.07 -1.20 3.06 -1.93 6.13 -2.70 11.29 -1.23 8.31 -1.90 12.33 -2.12 12.55 -0.10 0.10 -0.12 -1.90 -0.06 -5.84z" />
    <path
       d="M80.68 79.77 c-1.95 -1.77 -5.21 -5.08 -6.92 -7.01 -5.87 -6.62 -8.47 -13.49 -8.47 -22.36 0 -7.31 1.98 -13.77 6.12 -19.93 1.98 -2.93 15.68 -21.40 15.94 -21.49 0.35 -0.10 10.69 13.21 14.58 18.78 2.11 3.03 5.09 7.76 5.09 8.09 0 0.04 -0.58 -0.61 -1.30 -1.43 -1.63 -1.92 -3.94 -4.43 -6.87 -7.46 -2.38 -2.48 -7.37 -7.79 -9.71 -10.34 -0.74 -0.82 -1.40 -1.49 -1.46 -1.49 -0.07 0 -1.18 1.54 -2.47 3.42 -1.30 1.89 -3.20 4.63 -4.24 6.10 -5.70 8.03 -7.05 10.14 -8.45 13.05 -3.01 6.27 -4 13.70 -2.73 20.55 0.62 3.29 1.50 5.86 3.10 9.01 1.66 3.27 2.52 4.59 7.34 11.03 2.39 3.19 2.28 3.03 2.21 3.03 -0.03 0 -0.84 -0.71 -1.77 -1.57z" />
    <path
       d="M65.26 76.43 c-7.59 -0.97 -14.28 -5.86 -17.58 -12.84 -1.50 -3.17 -2.02 -5.42 -2.90 -12.40 -0.27 -2.25 -0.53 -4.34 -0.58 -4.63 -0.06 -0.43 -0.03 -0.55 0.14 -0.55 0.42 0 7.37 1.02 8.94 1.31 3.49 0.65 6.46 1.57 8.57 2.67 1.41 0.74 1.47 0.72 -1.50 0.23 -1.15 -0.19 -2.42 -0.23 -6.39 -0.22 -2.73 0 -4.99 0.04 -5.03 0.10 -0.29 0.27 0.87 6.29 1.69 8.78 2.24 6.89 7.17 12 14.28 14.83 1.64 0.65 5.55 1.69 7.86 2.08 0.79 0.14 1.50 0.30 1.56 0.36 0.38 0.35 -6.79 0.56 -9.06 0.27z" />
    <path
       d="M84.94 67.37 c-1.96 -1.64 -3.23 -3.04 -4.49 -4.92 -1.67 -2.52 -2.60 -4.76 -3.30 -8.09 -0.48 -2.15 -0.48 -6.32 -0.01 -8.45 0.89 -4.13 2.60 -7.62 5.78 -11.80 2.11 -2.77 5.29 -6.68 5.39 -6.61 0.17 0.10 3.50 4.62 4.73 6.39 1.10 1.57 2.63 4.13 3.38 5.63 0.62 1.24 1.85 4.18 1.76 4.27 -0.03 0.03 -0.66 -0.74 -1.41 -1.70 -0.75 -0.97 -2.06 -2.50 -2.94 -3.40 -2.05 -2.13 -5.06 -4.93 -5.29 -4.93 -0.10 0.01 -0.50 0.48 -0.89 1.05 -4.02 5.91 -4.83 7.34 -5.78 10.28 -2.34 7.13 -0.85 15.23 4.14 22.60 0.32 0.46 0.55 0.87 0.52 0.89 -0.03 0.03 -0.74 -0.52 -1.57 -1.21z" />
    <path
       d="M127.28 64.37 c0.35 -1.40 0.65 -3.25 0.81 -4.82 0.17 -1.88 0.14 -9.40 -0.04 -9.58 -0.13 -0.13 -4.54 0.45 -6.61 0.87 -2.81 0.59 -4.31 1.08 -6.75 2.25 -3.19 1.51 -5.73 3.36 -8.15 5.91 -0.85 0.88 -1.54 1.57 -1.54 1.53 0 -0.04 0.20 -0.63 0.45 -1.30 1.01 -2.80 3.01 -5.61 5.52 -7.73 3.40 -2.87 7.25 -4.53 12.68 -5.41 3.04 -0.50 9.04 -1.30 9.12 -1.21 0.09 0.09 -0.38 4.18 -0.78 6.97 -0.74 5.06 -2.06 8.97 -4.01 11.91 -0.36 0.55 -0.69 1 -0.74 1 -0.03 0 -0.01 -0.17 0.04 -0.39z" />
  </g>
</svg>

