<svg
   width="180px"
   height="120px"
   viewBox="0 0 180 120"
   preserveAspectRatio="xMidYMid meet"
   xmlns="http://www.w3.org/2000/svg">
  <g
     fill="#818cf8">
    <path
       d="M124.76 112.27 c-0.27 -0.03 -1.13 -0.13 -1.88 -0.20 -4.38 -0.48 -9.27 -2.08 -13.20 -4.30 -2.71 -1.54 -6.79 -4.50 -7.79 -5.65 -0.33 -0.39 -0.29 -0.36 1.30 0.65 5.81 3.72 10.63 5.67 16.15 6.50 2.15 0.33 7.64 0.38 9.74 0.09 6.19 -0.87 11.67 -3.12 16.56 -6.79 1.62 -1.23 2.70 -2.12 11.44 -9.46 2.18 -1.83 4.49 -3.75 5.13 -4.25 0.65 -0.52 1.18 -1.02 1.18 -1.11 0.01 -0.10 -0.59 -0.58 -1.31 -1.08 -1.38 -0.92 -6 -4.13 -10.57 -7.33 -7.59 -5.31 -10.11 -6.74 -14.42 -8.16 -3.75 -1.23 -7.38 -1.72 -11.87 -1.60 -4.62 0.12 -7.40 0.68 -11.50 2.29 -3.33 1.31 -5.99 2.94 -11.24 6.88 -3.91 2.96 -8.18 6.10 -9.53 7.04 -1.62 1.13 7.67 -7.67 11.73 -11.11 3.75 -3.17 7.56 -5.38 11.96 -6.89 7.04 -2.44 16.08 -2.42 23.45 0.04 3.35 1.11 6.40 2.68 10.20 5.21 3.56 2.38 20.42 14.18 20.55 14.38 0.04 0.07 -3.12 2.71 -7.01 5.87 -3.89 3.16 -8.03 6.50 -9.20 7.46 -2.77 2.24 -6.36 4.95 -7.92 5.96 -1.66 1.08 -4.64 2.60 -6.52 3.32 -3.91 1.50 -7.50 2.18 -12.04 2.26 -1.59 0.04 -3.12 0.03 -3.39 0z" />
    <path
       d="M45.87 112.05 c-4.89 -0.46 -9.69 -1.95 -13.92 -4.28 -2.81 -1.56 -9.14 -5.96 -19.05 -13.23 -2.13 -1.57 -4.25 -3.13 -4.70 -3.45 -0.46 -0.33 -0.81 -0.65 -0.78 -0.74 0.01 -0.07 2.67 -2.12 5.87 -4.54 11.37 -8.57 16.37 -12.07 19.93 -13.96 1.10 -0.59 2.02 -1.04 2.06 -1.01 0.03 0.04 -0.25 0.29 -0.63 0.56 -2.41 1.73 -5.34 4.25 -9.84 8.50 -2.96 2.78 -8.57 7.95 -10.11 9.30 -0.46 0.40 -0.84 0.79 -0.84 0.87 0 0.09 0.43 0.43 0.97 0.79 0.53 0.36 4.11 2.78 7.95 5.39 8.81 5.97 10.30 6.94 12.71 8.15 2.29 1.17 4.18 1.89 6.46 2.50 8.48 2.21 17.41 1.37 24.58 -2.32 2 -1.04 3.82 -2.22 8.05 -5.25 4.70 -3.38 10.60 -7.56 11.18 -7.92 1.21 -0.78 -11.29 11.18 -13.80 13.20 -5.42 4.36 -10.75 6.56 -17.86 7.38 -1.92 0.23 -6.14 0.26 -8.22 0.06z" />
    <path
       d="M47.96 100.95 c-4.31 -0.25 -8.52 -1.75 -12.74 -4.56 -1.77 -1.18 -7.36 -5.34 -8.47 -6.29 l-0.55 -0.48 1.86 -1.37 c4.53 -3.36 8.96 -6.10 12.22 -7.60 1.11 -0.49 2.03 -0.88 2.06 -0.85 0.04 0.03 -0.40 0.45 -0.98 0.91 -1.80 1.46 -3.85 3.39 -6.39 6.04 l-2.45 2.57 0.50 0.42 c0.74 0.62 4.36 3 5.74 3.78 2.39 1.36 4.66 2.21 7.53 2.86 1.34 0.29 1.89 0.33 4.69 0.33 2.74 0 3.39 -0.04 4.82 -0.33 3.45 -0.71 6.63 -2.05 10.76 -4.57 1.27 -0.78 2.54 -1.54 2.81 -1.72 0.46 -0.27 0.43 -0.22 -0.42 0.85 -1.40 1.73 -4.99 5.24 -6.20 6.04 -4.54 3.01 -9.20 4.25 -14.80 3.97z" />
    <path
       d="M126.13 100.86 c-3.26 -0.20 -6.42 -1.08 -9.29 -2.58 -1.33 -0.68 -3 -1.73 -2.57 -1.59 4.92 1.57 7.86 2.08 11.15 1.90 5 -0.26 9.30 -1.82 13.23 -4.80 1.85 -1.38 5.87 -4.99 5.87 -5.24 0 -0.14 -4.40 -3.32 -5.91 -4.25 -3.58 -2.21 -6.65 -3.06 -10.46 -2.91 -7.25 0.27 -13.07 3.09 -28.20 13.67 -1.47 1.02 -2.68 1.86 -2.71 1.86 -0.32 0 4.82 -5.12 8.35 -8.37 6.55 -5.99 12.65 -9.48 18.87 -10.77 1.59 -0.33 2.16 -0.39 4.63 -0.39 2.13 -0.01 3.14 0.04 4.18 0.25 3.22 0.61 6.76 2.16 10.17 4.46 2.18 1.47 8.35 6 8.41 6.17 0.07 0.20 -7.50 6.20 -10.07 7.96 -3.27 2.25 -6.23 3.53 -9.74 4.21 -1.17 0.23 -4.18 0.53 -4.83 0.49 -0.20 -0.01 -0.68 -0.04 -1.08 -0.07z" />
    <path
       d="M68.87 88.40 c-9.97 -0.48 -16.75 -3.13 -23.47 -9.17 -3.07 -2.74 -6.09 -6.66 -7.88 -10.23 -0.98 -1.96 -2.15 -5.09 -2.68 -7.25 -0.59 -2.34 -1.51 -7.80 -3.33 -19.70 -0.68 -4.44 -1.27 -8.22 -1.31 -8.41 -0.06 -0.32 -0.04 -0.33 0.55 -0.25 0.35 0.04 3.35 0.43 6.68 0.88 11.05 1.44 25.34 3.76 25.73 4.18 0.04 0.06 -0.69 0.06 -1.64 0 -0.95 -0.06 -4.98 -0.19 -8.94 -0.30 -3.97 -0.12 -9.03 -0.27 -11.25 -0.36 -6.46 -0.22 -6.35 -0.22 -6.39 0.03 -0.03 0.13 0.26 1.85 0.62 3.81 2.06 11.09 3.01 16.02 3.39 17.58 1.64 6.91 4.51 12.10 9.39 17.05 2.86 2.90 5.24 4.62 8.71 6.32 3.43 1.70 6.40 2.57 11.83 3.46 2.73 0.45 12.69 1.90 15.07 2.19 l0.94 0.10 -1.01 0.10 c-1.37 0.13 -12.14 0.12 -15 -0.03z" />
    <path
       d="M89.19 78.89 c0.17 -10.23 0.39 -13.69 1.11 -16.93 0.78 -3.58 2.63 -7.89 4.70 -10.98 4.88 -7.25 12 -12.36 20.70 -14.87 2.28 -0.65 4.33 -1.02 11.15 -2 3.10 -0.45 8.48 -1.23 11.96 -1.73 3.49 -0.52 6.36 -0.91 6.39 -0.88 0.06 0.06 -1.14 9.09 -1.70 12.71 -0.98 6.46 -2.54 15.04 -2.88 15.85 -0.07 0.19 -0.09 -0.40 -0.04 -1.43 0.09 -2.09 0.45 -13.99 0.58 -19.17 l0.10 -3.74 -0.49 0.09 c-1.43 0.23 -17.37 3.22 -19.89 3.72 -4.47 0.89 -6.82 1.66 -10.05 3.29 -7.69 3.87 -13.76 10.43 -16.75 18.07 -1.20 3.06 -1.93 6.13 -2.70 11.29 -1.23 8.31 -1.90 12.33 -2.12 12.55 -0.10 0.10 -0.12 -1.90 -0.06 -5.84z" />
    <path
       d="M80.68 79.77 c-1.95 -1.77 -5.21 -5.08 -6.92 -7.01 -5.87 -6.62 -8.47 -13.49 -8.47 -22.36 0 -7.31 1.98 -13.77 6.12 -19.93 1.98 -2.93 15.68 -21.40 15.94 -21.49 0.35 -0.10 10.69 13.21 14.58 18.78 2.11 3.03 5.09 7.76 5.09 8.09 0 0.04 -0.58 -0.61 -1.30 -1.43 -1.63 -1.92 -3.94 -4.43 -6.87 -7.46 -2.38 -2.48 -7.37 -7.79 -9.71 -10.34 -0.74 -0.82 -1.40 -1.49 -1.46 -1.49 -0.07 0 -1.18 1.54 -2.47 3.42 -1.30 1.89 -3.20 4.63 -4.24 6.10 -5.70 8.03 -7.05 10.14 -8.45 13.05 -3.01 6.27 -4 13.70 -2.73 20.55 0.62 3.29 1.50 5.86 3.10 9.01 1.66 3.27 2.52 4.59 7.34 11.03 2.39 3.19 2.28 3.03 2.21 3.03 -0.03 0 -0.84 -0.71 -1.77 -1.57z" />
    <path
       d="M65.26 76.43 c-7.59 -0.97 -14.28 -5.86 -17.58 -12.84 -1.50 -3.17 -2.02 -5.42 -2.90 -12.40 -0.27 -2.25 -0.53 -4.34 -0.58 -4.63 -0.06 -0.43 -0.03 -0.55 0.14 -0.55 0.42 0 7.37 1.02 8.94 1.31 3.49 0.65 6.46 1.57 8.57 2.67 1.41 0.74 1.47 0.72 -1.50 0.23 -1.15 -0.19 -2.42 -0.23 -6.39 -0.22 -2.73 0 -4.99 0.04 -5.03 0.10 -0.29 0.27 0.87 6.29 1.69 8.78 2.24 6.89 7.17 12 14.28 14.83 1.64 0.65 5.55 1.69 7.86 2.08 0.79 0.14 1.50 0.30 1.56 0.36 0.38 0.35 -6.79 0.56 -9.06 0.27z" />
    <path
       d="M84.94 67.37 c-1.96 -1.64 -3.23 -3.04 -4.49 -4.92 -1.67 -2.52 -2.60 -4.76 -3.30 -8.09 -0.48 -2.15 -0.48 -6.32 -0.01 -8.45 0.89 -4.13 2.60 -7.62 5.78 -11.80 2.11 -2.77 5.29 -6.68 5.39 -6.61 0.17 0.10 3.50 4.62 4.73 6.39 1.10 1.57 2.63 4.13 3.38 5.63 0.62 1.24 1.85 4.18 1.76 4.27 -0.03 0.03 -0.66 -0.74 -1.41 -1.70 -0.75 -0.97 -2.06 -2.50 -2.94 -3.40 -2.05 -2.13 -5.06 -4.93 -5.29 -4.93 -0.10 0.01 -0.50 0.48 -0.89 1.05 -4.02 5.91 -4.83 7.34 -5.78 10.28 -2.34 7.13 -0.85 15.23 4.14 22.60 0.32 0.46 0.55 0.87 0.52 0.89 -0.03 0.03 -0.74 -0.52 -1.57 -1.21z" />
    <path
       d="M127.28 64.37 c0.35 -1.40 0.65 -3.25 0.81 -4.82 0.17 -1.88 0.14 -9.40 -0.04 -9.58 -0.13 -0.13 -4.54 0.45 -6.61 0.87 -2.81 0.59 -4.31 1.08 -6.75 2.25 -3.19 1.51 -5.73 3.36 -8.15 5.91 -0.85 0.88 -1.54 1.57 -1.54 1.53 0 -0.04 0.20 -0.63 0.45 -1.30 1.01 -2.80 3.01 -5.61 5.52 -7.73 3.40 -2.87 7.25 -4.53 12.68 -5.41 3.04 -0.50 9.04 -1.30 9.12 -1.21 0.09 0.09 -0.38 4.18 -0.78 6.97 -0.74 5.06 -2.06 8.97 -4.01 11.91 -0.36 0.55 -0.69 1 -0.74 1 -0.03 0 -0.01 -0.17 0.04 -0.39z" />
  </g>
</svg>

